<svg width="66" height="60" viewBox="0 0 66 60" fill="none" xmlns="http://www.w3.org/2000/svg">
<path d="M0 33.4365L48.1166 41.8215C47.1043 43.4023 45.2147 43.8147 43.7301 43.8147C41.908 43.8147 34.9571 43.7459 32.2577 43.7459C21.5951 43.6772 8.57055 43.2648 0 42.6463C0.134969 44.7769 0.404908 51.3749 0.539877 53.5743C0.742331 56.8733 0.877301 57.4918 1.68712 58.1104C2.09202 58.3853 2.76687 58.729 4.72393 58.8664C23.0798 60.1723 37.6564 60.3098 52.0307 59.485C58.2393 59.1414 60.8037 58.6603 63.0307 56.6671C64.6503 55.2238 65.4601 52.8182 65.5951 48.8319C65.7301 45.5329 65.865 39.6909 65.865 37.9039L0 25.3264V33.4365ZM17.4785 17.0788C17.7485 16.6665 18.6933 15.7042 20.7178 15.4293C21.7301 15.2919 30.0982 15.1544 39.4785 15.2231C48.8589 15.2919 59.5215 15.9104 65.865 16.1853C65.7301 13.4362 65.4601 8.35017 65.3926 6.42574C65.1902 3.12672 65.0552 2.50815 64.2454 1.88959C63.8405 1.61467 63.1656 1.27102 61.2086 1.13356C42.8528 -0.172302 28.2761 -0.309761 13.9018 0.514995C7.69325 0.858643 5.12883 1.33975 2.90184 3.33291C1.28221 4.77623 0.472393 7.18177 0.337423 11.1681C0.202454 14.2609 0.0674847 19.5531 0.0674847 21.6837L66 33.299V26.2199L17.4785 17.0788Z" fill="black"/>
</svg>
