<svg width="67" height="68" viewBox="0 0 67 68" fill="none" xmlns="http://www.w3.org/2000/svg">
<path d="M33.5037 67.3573L42.8769 14.6419C51.8112 14.6419 54.6293 15.6216 55.0362 19.6205C55.0362 19.6205 61.0296 17.3858 64.0525 12.8472C52.2565 7.38113 40.4042 7.13462 40.4042 7.13462L33.4881 15.5582L33.5037 15.5572L26.5877 7.1333C26.5877 7.1333 14.7351 7.38008 2.9407 12.8461C5.96091 17.3847 11.9567 19.6194 11.9567 19.6194C12.3659 15.6203 15.1806 14.6406 24.055 14.6343L33.5037 67.3573Z" fill="black"/>
<path d="M33.5 4.70137C43.0354 4.62844 53.9498 6.17646 65.1228 11.0462C66.6161 8.35833 67 7.17043 67 7.17043C54.7863 2.33825 43.3482 0.684548 33.4987 0.643066C23.6496 0.684548 12.2122 2.33852 0 7.17043C0 7.17043 0.544805 8.63364 1.87591 11.0462C13.0468 6.17646 23.963 4.62844 33.4987 4.70137H33.5" fill="black"/>
</svg>
