<svg width="109" height="96" viewBox="0 0 109 96" fill="none" xmlns="http://www.w3.org/2000/svg">
<path d="M86.1619 20.2918C80.2794 23.4946 74.3968 26.7943 68.4278 29.997C72.0611 31.5499 75.6079 33.1027 79.2413 34.6555C81.4905 35.626 84.0857 36.7907 85.0373 39.7993C86.0754 42.8079 84.6047 45.5253 83.3071 47.8546C81.3174 51.3485 79.4143 54.7453 77.4246 58.2391C70.4175 70.4677 63.4103 82.7933 56.4032 95.0218C56.4032 91.2368 56.4032 87.4518 56.4032 83.6667C59.0849 74.2527 61.6802 64.7416 64.1889 55.2305C64.881 52.5131 65.573 49.7956 66.3516 47.0782C66.7841 45.4283 66.5246 44.4578 65.1405 43.6814C61.5936 41.7403 57.9603 39.7022 54.4135 37.7612C50.8667 39.7022 47.2333 41.7403 43.6865 43.6814C42.3024 44.4578 42.0429 45.4283 42.4754 47.0782C43.1675 49.7956 43.8595 52.5131 44.6381 55.2305C47.1468 64.7416 49.7421 74.2527 52.4238 83.6667C52.4238 87.4518 52.4238 91.2368 52.4238 95.0218C45.4167 82.7933 38.4095 70.4677 31.4024 58.2391C29.4127 54.7453 27.5095 51.3485 25.5198 47.8546C24.2222 45.6224 22.7516 42.9049 23.7897 39.7993C24.7413 36.8877 27.423 35.626 29.5857 34.6555C33.219 33.1027 36.7659 31.5499 40.3992 29.997C34.5167 26.7943 28.6341 23.4946 22.6651 20.2918C24.4817 23.7857 26.3849 27.1825 28.2016 30.6764C25.1738 31.9381 22.146 33.2968 19.1183 34.6555C12.7167 23.3975 6.31508 12.2365 0 0.978516C18.1667 8.16036 36.3333 15.4393 54.5 22.427C72.7532 15.4393 90.8333 8.16036 109 0.978516C102.598 12.2365 96.2833 23.3975 89.8817 34.6555C86.854 33.2968 83.8262 32.0351 80.7984 30.6764C82.5286 27.1825 84.3452 23.6887 86.1619 20.2918Z" fill="black"/>
</svg>
